<svg xmlns="http://www.w3.org/2000/svg" width="1919.214" height="612.896" viewBox="0 0 1919.214 612.896">
  <g id="cloud-01" transform="translate(1.453 3.903)">
    <path id="Path_344" data-name="Path 344" d="M194.905,32.2a7.929,7.929,0,0,1-2.841,2.791,12.124,12.124,0,0,1-8.457,1.652,15.428,15.428,0,0,1-4.526-1.288,11.183,11.183,0,0,1-1.437-.826,4.543,4.543,0,0,0,.363-.429,5.2,5.2,0,0,1-.479.363c-.595.429-1.206.859-1.833,1.255l-.231.132a9.713,9.713,0,0,1-1.437.859,12.967,12.967,0,0,1-2.445.842,13.462,13.462,0,0,1-2.692.429,8.7,8.7,0,0,1-2.263-.215A8.077,8.077,0,0,1,163.6,36.76a5.88,5.88,0,0,1-1.52-1.255,5.352,5.352,0,0,0-.842-1.09c.1.2.2.4.314.595a4.327,4.327,0,0,0,.694.942,10.72,10.72,0,0,1-2.23,1.189,11.3,11.3,0,0,1-5.4,1.057,12.107,12.107,0,0,1-5.418-1.734,6.227,6.227,0,0,1-1.437-1.156h0a6.838,6.838,0,0,1-1.222-1.652,7,7,0,0,0,.76,1.487,17.049,17.049,0,0,1-2.032.776,7.483,7.483,0,0,1-3.816.215,5.5,5.5,0,0,1-4.162-5.12,6.062,6.062,0,0,1,3.3-5.633,6.607,6.607,0,0,1,3.849-.429l.545.132v.76a6.377,6.377,0,0,0,.1.809,8.061,8.061,0,0,0,.38,1.057,6.426,6.426,0,0,1,.264-2.957,2.6,2.6,0,0,1,.2-.5,5.367,5.367,0,0,1,.3-.71,8.936,8.936,0,0,1,4.1-3.551,8.259,8.259,0,0,1,5.6-.908,6.246,6.246,0,0,1,.991.281,3.171,3.171,0,0,0,.479,2.379,3.964,3.964,0,0,1,.264-3.105,5.269,5.269,0,0,1,1.189-1.553,1.653,1.653,0,0,1,.38-.3h0l.3-.149h0a7.994,7.994,0,0,1,1.767-.529,4.955,4.955,0,0,1,1.3-.1h.38a2.742,2.742,0,0,0-.975-.165,14.006,14.006,0,0,0-1.437.1,6.426,6.426,0,0,0-1.222.347,5.649,5.649,0,0,1-.644-2.428,6.243,6.243,0,0,1,.479-3.072,7.813,7.813,0,0,1,1.817-2.445,7.037,7.037,0,0,1,5.55-1.833,5.632,5.632,0,0,1,4.344,2.725,9.663,9.663,0,0,0-1.52.677,5.452,5.452,0,0,0-.875.76,6.145,6.145,0,0,1,4.229-1.321,6.954,6.954,0,0,1,4.443,1.3,9.316,9.316,0,0,1,3.419,4.2,6.607,6.607,0,0,1,.347,1.553,8.507,8.507,0,0,1,.116,1.652,3.885,3.885,0,0,1,0,.429,7.683,7.683,0,0,0,.116-1.371h.132a9.547,9.547,0,0,1,2.742,0,8.259,8.259,0,0,1,4.658,2.511,8.689,8.689,0,0,1,1.272,2.263,4.741,4.741,0,0,1,0,2.99,2.972,2.972,0,0,1-.1.363h0a7.632,7.632,0,0,0-1.355.3.76.76,0,0,0-.462.264h.083a2.345,2.345,0,0,1,1.288-.281,5.169,5.169,0,0,1,.875,0h0a7.383,7.383,0,0,1,1.652.314,4.955,4.955,0,0,1,2.99,2.659,4.46,4.46,0,0,1-.033,3.7Z" transform="translate(706.267 6.764)" fill="#fff" opacity="0.5"/>
    <path id="Path_345" data-name="Path 345" d="M65.7,109.446a7.813,7.813,0,0,1-2.775,2.791,12.223,12.223,0,0,1-8.457,1.652,15.989,15.989,0,0,1-4.526-1.3,9.529,9.529,0,0,1-1.437-.826,4.542,4.542,0,0,0,.363-.429l-.462.363c-.611.429-1.222.859-1.85,1.255l-.231.132a8.937,8.937,0,0,1-1.437.859,12.208,12.208,0,0,1-2.445.842,13.462,13.462,0,0,1-2.692.429A8.705,8.705,0,0,1,37.485,115a7.8,7.8,0,0,1-3.023-1.008,5.286,5.286,0,0,1-1.52-1.255,5.914,5.914,0,0,0-.826-1.09,4.956,4.956,0,0,0,.3.595,4.327,4.327,0,0,0,.694.942,10.72,10.72,0,0,1-2.23,1.189,11.3,11.3,0,0,1-5.4,1.057,12.107,12.107,0,0,1-5.418-1.652,6.128,6.128,0,0,1-1.421-1.156h0a7.63,7.63,0,0,1-1.222-1.652,8.258,8.258,0,0,0,.76,1.47,12.8,12.8,0,0,1-2.032.776,7.483,7.483,0,0,1-3.816.215,5.467,5.467,0,0,1-4.146-5.12,6.012,6.012,0,0,1,3.3-5.632,6.607,6.607,0,0,1,3.849-.413l.529.116v.76a4.344,4.344,0,0,0,.116.809A6.145,6.145,0,0,0,16.342,105a6.425,6.425,0,0,1,.264-2.957,3.1,3.1,0,0,1,.2-.5,4.444,4.444,0,0,1,.314-.71,8.853,8.853,0,0,1,4.1-3.551A8.259,8.259,0,0,1,26.8,96.38a7,7,0,0,1,1.008.281,3.155,3.155,0,0,0,.429,2.362,3.931,3.931,0,0,1,.281-3.122,4.955,4.955,0,0,1,1.173-1.553,3.3,3.3,0,0,1,.38-.3h0l.3-.149h0a7.135,7.135,0,0,1,1.767-.512,4.328,4.328,0,0,1,1.3-.116h.38a2.742,2.742,0,0,0-.975-.165,10.541,10.541,0,0,0-1.437.116,5.37,5.37,0,0,0-1.222.33,5.649,5.649,0,0,1-.644-2.428,6.475,6.475,0,0,1,.479-3.072,7.813,7.813,0,0,1,1.817-2.445,6.954,6.954,0,0,1,5.566-1.8,5.533,5.533,0,0,1,4.344,2.725,7.366,7.366,0,0,0-1.52.677,4.1,4.1,0,0,0-.859.743A6.1,6.1,0,0,1,43.6,86.635a6.921,6.921,0,0,1,4.427,1.3,9.3,9.3,0,0,1,3.419,4.2,6.607,6.607,0,0,1,.347,1.652,7.235,7.235,0,0,1,.116,1.652,3.734,3.734,0,0,1,0,.429A7.681,7.681,0,0,0,52.02,94.5h.132a9.53,9.53,0,0,1,2.742,0,8.11,8.11,0,0,1,4.658,2.511,7.912,7.912,0,0,1,1.272,2.246,4.741,4.741,0,0,1,.083,2.99,1.335,1.335,0,0,1-.116.363h0a9.433,9.433,0,0,0-1.354.3.859.859,0,0,0-.462.264h.116a2.345,2.345,0,0,1,1.288-.281,5.172,5.172,0,0,1,.875,0h0a7.07,7.07,0,0,1,1.652.314,4.955,4.955,0,0,1,2.957,2.593A4.46,4.46,0,0,1,65.7,109.446Z" transform="translate(6.276 493.552)" fill="#fff" opacity="0.5"/>
    <path id="Path_346" data-name="Path 346" d="M90.841,6.475a3.915,3.915,0,0,0,1.652.446h1.668a4.031,4.031,0,0,1-.892.149.94.94,0,0,0,0,.231A3.452,3.452,0,0,0,93.9,8.358a5.434,5.434,0,0,0,2.081,1.652,4.675,4.675,0,0,0,2.593.38,2.032,2.032,0,0,0,.545-.132,3.3,3.3,0,0,1-.2-1.156h0a2.775,2.775,0,0,0,.512,1.272,3.981,3.981,0,0,0,.545.727,6.029,6.029,0,0,0,1.288,1.14,8.9,8.9,0,0,0,4.129,1.47,6.888,6.888,0,0,0,3.816-.644,4.823,4.823,0,0,0,1.4-1.09,2.809,2.809,0,0,0,.529-.628,4.1,4.1,0,0,0,.429-1.536,3.3,3.3,0,0,1-.446,1.85,7.1,7.1,0,0,0,5.385.529,3.3,3.3,0,0,0,2.263-1.916,2.262,2.262,0,0,0,.149-.809,1.652,1.652,0,0,0-.116-1.156,2.131,2.131,0,0,0-1.09-.925,1.5,1.5,0,0,1,1.074.661,1.8,1.8,0,0,1,.231.38,2.89,2.89,0,0,0,.545-.462,3.138,3.138,0,0,0,.925-1.14,5.253,5.253,0,0,0,.38-.958,1.8,1.8,0,0,0,0-.281,5.5,5.5,0,0,1-.363,1.652,6.789,6.789,0,0,0,2.312,0,2.461,2.461,0,0,0,2.1-2.445,3.023,3.023,0,0,0-2.742-2.709,6.607,6.607,0,0,0-2.131.149l-.314.083a3.782,3.782,0,0,1,.529.71,2.541,2.541,0,0,1,.132.314,3.419,3.419,0,0,0-1.156-1.173A4.955,4.955,0,0,0,116.047.991a5.484,5.484,0,0,0-2.213.512,2.593,2.593,0,0,1,0,.942,2.494,2.494,0,0,0-.4-1.536A2.878,2.878,0,0,0,113.272.6a5.567,5.567,0,0,0-2.4-2.263,4.592,4.592,0,0,0-3.469-.149,1.593,1.593,0,0,0-.611.248h-.248l-.611.314a2.874,2.874,0,0,1,.595-.5h.1l-.33-.562a3.5,3.5,0,0,0-2.1-1.454,4.443,4.443,0,0,0-1.321-.132,3.105,3.105,0,0,0-1.14.446A2.61,2.61,0,0,0,100.57-1.8l-.1.314a3.056,3.056,0,0,0-.2.661h0v-.33a6.423,6.423,0,0,0-.628-.264,4.625,4.625,0,0,0-2.874,0A3.8,3.8,0,0,0,94.591.232a3.088,3.088,0,0,0-.363,1.057,2.312,2.312,0,0,1,1.222.76,2.99,2.99,0,0,0-2.081-.826,5.8,5.8,0,0,0-1.52.165A3.188,3.188,0,0,0,89.173,3.4a2.891,2.891,0,0,0,1.668,3.072Z" transform="translate(444.195 0)" fill="#fff" opacity="0.4"/>
    <path id="Path_347" data-name="Path 347" d="M179.042,76.938a7.78,7.78,0,0,0,3.4.958c.677,0,1.354.116,2.032.149a12.689,12.689,0,0,0,1.652,0,12.65,12.65,0,0,1-1.949.347,2.277,2.277,0,0,0,.132.479,7.862,7.862,0,0,0,1.354,2.3,12.388,12.388,0,0,0,4.493,3.485,10.621,10.621,0,0,0,5.632.842,7.187,7.187,0,0,0,1.173-.3,6.954,6.954,0,0,1-.429-2.494h0a6,6,0,0,0,1.09,2.758,9.038,9.038,0,0,0,1.173,1.652,13.693,13.693,0,0,0,2.792,2.461,19.243,19.243,0,0,0,8.92,3.188,15.163,15.163,0,0,0,8.259-1.4,10.67,10.67,0,0,0,3.023-2.345,5.583,5.583,0,0,0,1.14-1.354,8.82,8.82,0,0,0,.958-3.3,7.234,7.234,0,0,1-.975,3.981,15.279,15.279,0,0,0,11.645,1.14,6.921,6.921,0,0,0,4.856-4.146,5.235,5.235,0,0,0,.347-1.652,3.3,3.3,0,0,0-.248-2.494,4.955,4.955,0,0,0-2.379-2.015,3.122,3.122,0,0,1,2.329,1.454,4.1,4.1,0,0,1,.5.809,8.6,8.6,0,0,0,1.189-.991,6.839,6.839,0,0,0,2-2.478,11.714,11.714,0,0,0,.826-2.065,3.7,3.7,0,0,0,.165-.611,11.314,11.314,0,0,1-.793,3.7,14.552,14.552,0,0,0,4.955,0,5.286,5.286,0,0,0,4.526-5.286,6.607,6.607,0,0,0-5.93-5.864,14.684,14.684,0,0,0-4.575.314l-.694.215a9.318,9.318,0,0,1,1.156,1.5l.281.694a7.813,7.813,0,0,0-2.494-2.544,10.885,10.885,0,0,0-6.888-2.544,12.7,12.7,0,0,0-4.79,1.123,5.236,5.236,0,0,1-.116,2.032,5.5,5.5,0,0,0-.842-3.3c-.116-.231-.231-.479-.363-.694a12.025,12.025,0,0,0-5.153-4.955,9.911,9.911,0,0,0-7.5-.33c-.463.165-.908.33-1.338.529h-.231l-.33.149a13.977,13.977,0,0,0-1.3.677A5.781,5.781,0,0,1,213,59.628l.2-.116c-.215-.413-.462-.826-.71-1.206a7.482,7.482,0,0,0-4.642-3.188,8.672,8.672,0,0,0-2.841-.281,6.062,6.062,0,0,0-2.478.958A5.5,5.5,0,0,0,200,59.1a2.89,2.89,0,0,0-.2.529,6.345,6.345,0,0,0-.462,1.437.231.231,0,0,1,0-.165v-.727c-.462-.231-.925-.429-1.354-.595a9.91,9.91,0,0,0-6.211,0,7.912,7.912,0,0,0-4.708,3.4,6.607,6.607,0,0,0-.793,2.3,5.054,5.054,0,0,1,2.643,1.652,6.442,6.442,0,0,0-4.41-1.421,13.826,13.826,0,0,0-3.3.347c-2.527.578-4.955,1.652-5.748,4.361S176.762,75.633,179.042,76.938Z" transform="translate(931.214 344.034)" fill="#fff" opacity="0.4"/>
    <path id="Path_348" data-name="Path 348" d="M94.338,18.755c-.892-3.75-4.377-5.3-7.846-5.913a15.047,15.047,0,0,0-5.7.215,11.91,11.91,0,0,0-.479-2.279,9,9,0,0,0-5.616-5.2,12.471,12.471,0,0,0-7.681-.38,9.448,9.448,0,0,0-2.874,1.321,7.367,7.367,0,0,0-2.758-5.3A8.259,8.259,0,0,0,54.068.008a10.076,10.076,0,0,0-5.8,4.2A14.866,14.866,0,0,0,47.2,5.954a15.708,15.708,0,0,0-3.766-1.4,11.562,11.562,0,0,0-9.1,1.767,13.908,13.908,0,0,0-5.484,6.706,6.607,6.607,0,0,0-.33,1.173l-.611-.264a15,15,0,0,0-6.161-1.239A12.933,12.933,0,0,0,13.6,16,12.917,12.917,0,0,0,7.868,14.89a9.085,9.085,0,0,0-5.946,1.933,9.184,9.184,0,0,0-3.089,4.641,6.987,6.987,0,0,0,4.229,8.507,12.57,12.57,0,0,0,8.259.083.132.132,0,0,1,0,.083,8.672,8.672,0,0,0,3.3,3.667,9.167,9.167,0,0,0-.2,1.487A8.077,8.077,0,0,0,18.8,42.706a18.169,18.169,0,0,0,10.109,1.652,14.205,14.205,0,0,0,7.383-2.692,13.825,13.825,0,0,0,3.105,3.3,16.765,16.765,0,0,0,11.2,2.61,22.447,22.447,0,0,0,11.562-4.328,14.469,14.469,0,0,0,4.509-5.187l.677.314a11.215,11.215,0,0,0,7.928-.149,14.337,14.337,0,0,0,6.458-4.84,13.858,13.858,0,0,0,1.866-3.3,4.294,4.294,0,0,0,.248-1.107,11.315,11.315,0,0,0,5.484-1.338C92.636,25.858,95.263,22.653,94.338,18.755Z" transform="translate(0 2.305)" fill="#a2b9b9"/>
    <path id="Path_349" data-name="Path 349" d="M88.382,26.872a9.6,9.6,0,0,1-4.113,1.156c-.826.1-1.652.149-2.478.182h-1.9a13.908,13.908,0,0,0,2.345.4,3.913,3.913,0,0,1-.149.595,9.911,9.911,0,0,1-1.652,2.758A14.519,14.519,0,0,1,75,36.238a12.619,12.619,0,0,1-6.789,1.008A7.449,7.449,0,0,1,66.76,36.9a8.259,8.259,0,0,0,.545-3.023h0a7.7,7.7,0,0,1-1.321,3.3,12.108,12.108,0,0,1-1.421,1.9,17.1,17.1,0,0,1-3.3,2.973A23.405,23.405,0,0,1,50.474,45.9a18.07,18.07,0,0,1-9.911-1.652A12.421,12.421,0,0,1,36.9,41.408a6.855,6.855,0,0,1-1.387-1.652,10.835,10.835,0,0,1-1.14-4.03,8.655,8.655,0,0,0,1.173,4.823,18.582,18.582,0,0,1-14.09,1.387,8.457,8.457,0,0,1-6.045-5.1,6.855,6.855,0,0,1-.413-2.081,4.129,4.129,0,0,1,.413-3.023A5.616,5.616,0,0,1,18.265,29.3a3.8,3.8,0,0,0-2.858,1.751,4.592,4.592,0,0,0-.611.975,8.886,8.886,0,0,1-1.421-1.189,8.556,8.556,0,0,1-2.428-2.99,15.543,15.543,0,0,1-.991-2.511,5.946,5.946,0,0,1-.215-.661,13.825,13.825,0,0,0,.958,4.46,17.79,17.79,0,0,1-6.062,0A6.409,6.409,0,0,1-.83,22.71a7.862,7.862,0,0,1,7.169-7.1,17.79,17.79,0,0,1,5.533.38,7.335,7.335,0,0,1,.859.248,10.885,10.885,0,0,0-1.421,1.833c-.116.281-.231.562-.33.842a9.068,9.068,0,0,1,3.006-3.072,13.214,13.214,0,0,1,8.259-3.089,15.031,15.031,0,0,1,5.8,1.354,6.458,6.458,0,0,0,.149,2.461A6.458,6.458,0,0,1,29.2,12.585c.132-.3.281-.578.429-.842a14.569,14.569,0,0,1,6.244-5.913,11.777,11.777,0,0,1,9.052-.38,12.652,12.652,0,0,1,1.652.628h0l.264.116h0l.4.165c.529.264,1.074.512,1.652.826A6.458,6.458,0,0,0,47.336,5.9l-.248-.149c.264-.512.562-.991.859-1.454A9.1,9.1,0,0,1,53.4.51,10.588,10.588,0,0,1,56.85.18a7.532,7.532,0,0,1,2.99,1.156A6.739,6.739,0,0,1,62.9,5.449a3.733,3.733,0,0,1,.248.644,8.259,8.259,0,0,1,.545,1.652.248.248,0,0,0,.116-.2V6.671a13.627,13.627,0,0,1,1.652-.71,12.058,12.058,0,0,1,7.516,0,9.564,9.564,0,0,1,5.682,4.129,8.259,8.259,0,0,1,.975,2.775,5.9,5.9,0,0,0-3.188,1.982A7.648,7.648,0,0,1,81.758,13.2a16.154,16.154,0,0,1,4.014.413c3.056.694,6,2.015,6.954,5.269S91.124,25.3,88.382,26.872Z" transform="translate(0.406 2.645)" fill="#fff"/>
    <path id="Path_350" data-name="Path 350" d="M72.954,14.293c1.437,2.032,1.437,4.955,4.344,5.8a5.583,5.583,0,0,1-7.251,1.734c-1.784-1.09-2.346-2.841-3.436-4.377.132,4.658-2.164,9.712-6.458,11.05-7.846,2.907-17.707,3.2-24.1-2.312a6.326,6.326,0,0,1-1.041-5.7,9.432,9.432,0,0,0-1.85,7.152,34.308,34.308,0,0,1-7.516.611c-3.188-.578-7.846-2.329-6.97-6.392A7.086,7.086,0,0,1,21.5,18.34c-2.791.33-5.8.991-7.169,3.3a10.538,10.538,0,0,1-4.146-9.233,7.02,7.02,0,0,0-1.949,6.607c-4.129.859-8.407-1.52-8.969-5.071a4.955,4.955,0,0,0-.1.859A6.409,6.409,0,0,0,4.637,21.2a17.79,17.79,0,0,0,6.062,0,13.825,13.825,0,0,1-.958-4.509,5.946,5.946,0,0,0,.2.727,15.543,15.543,0,0,0,.991,2.511,8.556,8.556,0,0,0,2.428,2.99A8.887,8.887,0,0,0,14.779,24.1a4.592,4.592,0,0,1,.628-1.041,3.8,3.8,0,0,1,2.808-1.751,5.616,5.616,0,0,0-2.808,2.428,4.129,4.129,0,0,0-.314,3.023,6.855,6.855,0,0,0,.314,2.081,8.457,8.457,0,0,0,5.88,5.038A18.582,18.582,0,0,0,35.377,32.5,8.655,8.655,0,0,1,34.2,27.672a10.836,10.836,0,0,0,1.14,4.03,6.855,6.855,0,0,0,1.387,1.652A12.421,12.421,0,0,0,40.4,36.2a18.07,18.07,0,0,0,9.911,1.652A23.405,23.405,0,0,0,61.095,34a17.1,17.1,0,0,0,3.3-2.973,12.107,12.107,0,0,0,1.421-1.9,7.7,7.7,0,0,0,1.321-3.3h0a8.259,8.259,0,0,1-.545,3.023,7.45,7.45,0,0,0,1.454.347A12.619,12.619,0,0,0,75,28.25a14.519,14.519,0,0,0,5.434-4.229,9.91,9.91,0,0,0,1.652-2.758,3.914,3.914,0,0,0,.149-.595,13.908,13.908,0,0,1-2.412-.429h1.9a20.832,20.832,0,0,0,2.478-.182A9.6,9.6,0,0,0,88.316,18.9a8.672,8.672,0,0,0,4.493-5.8C88.316,19,78.306,20.206,72.954,14.293Z" transform="translate(0.406 88.553)" fill="#bce8e5" opacity="0.4"/>
    <path id="Path_351" data-name="Path 351" d="M377.134,56.377c-.892-3.75-4.394-5.3-7.846-5.913a15.146,15.146,0,0,0-5.715.215,9.914,9.914,0,0,0-.479-2.279,8.919,8.919,0,0,0-5.616-5.2,12.4,12.4,0,0,0-7.664-.446,9.548,9.548,0,0,0-2.891,1.321,7.383,7.383,0,0,0-2.742-5.236,8.259,8.259,0,0,0-7.334-1.206,10.125,10.125,0,0,0-5.8,4.162,12.771,12.771,0,0,0-1.008,1.751,15.825,15.825,0,0,0-3.783-1.4,11.562,11.562,0,0,0-9.1,1.767,14.007,14.007,0,0,0-5.484,6.706,6.607,6.607,0,0,0-.314,1.173l-.628-.264a14.865,14.865,0,0,0-6.145-1.239,12.851,12.851,0,0,0-8.143,3.3,12.95,12.95,0,0,0-5.748-1.107,9,9,0,0,0-9.019,6.607,7,7,0,0,0,4.179,8.457,12.669,12.669,0,0,0,8.259,0h0a8.639,8.639,0,0,0,3.3,3.667,9.137,9.137,0,0,0-.182,1.487,8.011,8.011,0,0,0,4.377,7.416,18.17,18.17,0,0,0,10.092,1.652,14.09,14.09,0,0,0,7.383-2.692,13.875,13.875,0,0,0,3.122,3.3,16.733,16.733,0,0,0,11.182,2.61,22.4,22.4,0,0,0,11.562-4.328,14.685,14.685,0,0,0,4.526-5.187,4.837,4.837,0,0,0,.661.314,11.348,11.348,0,0,0,7.846-.116,14.436,14.436,0,0,0,6.442-4.856,13.3,13.3,0,0,0,1.866-3.3,3.7,3.7,0,0,0,.331-.942,11.43,11.43,0,0,0,5.5-1.338C375.416,63.479,378.042,60.275,377.134,56.377Z" transform="translate(6.685 209.471)" fill="#a2b9b9"/>
    <path id="Path_352" data-name="Path 352" d="M371.2,64.569a9.53,9.53,0,0,1-4.113,1.156c-.809.1-1.652.149-2.461.182h-1.9a13.645,13.645,0,0,0,2.346.4,2,2,0,0,1-.165.595,9.515,9.515,0,0,1-1.652,2.758,14.618,14.618,0,0,1-5.434,4.229,12.669,12.669,0,0,1-6.805,1.008,7.581,7.581,0,0,1-1.437-.347,8.257,8.257,0,0,0,.529-3.023h0a7.449,7.449,0,0,1-1.338,3.3,13.108,13.108,0,0,1-1.4,1.9,17.1,17.1,0,0,1-3.386,2.973,23.472,23.472,0,0,1-10.77,3.766,18.169,18.169,0,0,1-9.91-1.652,12.848,12.848,0,0,1-3.667-2.841,6.789,6.789,0,0,1-1.371-1.652,11.18,11.18,0,0,1-1.156-4.03,8.621,8.621,0,0,0,1.189,4.823A18.582,18.582,0,0,1,304.2,79.5a8.391,8.391,0,0,1-5.946-5.021,6.394,6.394,0,0,1-.413-2.081,4.047,4.047,0,0,1,.3-3.023,5.715,5.715,0,0,1,2.874-2.428,3.882,3.882,0,0,0-2.824,1.751,5.3,5.3,0,0,0-.595.975,8.889,8.889,0,0,1-1.421-1.189,8.375,8.375,0,0,1-2.428-2.99,15.033,15.033,0,0,1-1.008-2.577l-.2-.727a14.274,14.274,0,0,0,.958,4.46,17.69,17.69,0,0,1-6.046,0A6.409,6.409,0,0,1,282,60.323a7.9,7.9,0,0,1,7.169-7.1,17.889,17.889,0,0,1,5.55.38,3.079,3.079,0,0,1,.842.248,10.789,10.789,0,0,0-1.4,1.833c-.116.281-.231.562-.33.842a8.919,8.919,0,0,1,3.039-3.072,13.115,13.115,0,0,1,8.259-3.089,15.328,15.328,0,0,1,5.781,1.354,6.46,6.46,0,0,0,.149,2.461,6.475,6.475,0,0,1,1.024-3.981c.132-.3.281-.578.43-.842a14.387,14.387,0,0,1,6.244-5.913,11.777,11.777,0,0,1,9.052-.38,13.671,13.671,0,0,1,1.652.628h0l.281.116h0l.38.165c.529.264,1.09.512,1.652.826a6.606,6.606,0,0,0-1.569-1.288l-.248-.149c.281-.512.578-.991.875-1.454a9.1,9.1,0,0,1,5.434-3.766,10.489,10.489,0,0,1,3.436-.33,7.6,7.6,0,0,1,3.006,1.156,6.723,6.723,0,0,1,3.039,4.129,2.74,2.74,0,0,1,.248.644,6.936,6.936,0,0,1,.545,1.652.248.248,0,0,0,.116-.2,7.764,7.764,0,0,0,0-.875,14.87,14.87,0,0,1,1.652-.71,12.107,12.107,0,0,1,7.532,0,9.613,9.613,0,0,1,5.682,4.129,8.259,8.259,0,0,1,.975,2.775,6.045,6.045,0,0,0-3.2,1.982,7.714,7.714,0,0,1,5.335-1.652,16.039,16.039,0,0,1,4,.413c3.072.694,6.012,2.015,6.954,5.269S373.937,62.917,371.2,64.569Z" transform="translate(8.073 211.132)" fill="#fff"/>
    <path id="Path_353" data-name="Path 353" d="M355.764,51.972c1.454,2.032,1.454,4.955,4.361,5.8a5.583,5.583,0,0,1-7.268,1.652c-1.734-1.09-2.346-2.841-3.4-4.377.149,4.658-2.164,9.712-6.458,11.05-7.829,2.907-17.707,3.2-24.083-2.312a6.326,6.326,0,0,1-1.041-5.7,9.432,9.432,0,0,0-1.866,7.152,34.142,34.142,0,0,1-7.549.578c-3.188-.578-7.829-2.329-6.954-6.392a6.871,6.871,0,0,1,2.808-3.551c-2.775.314-5.781.975-7.169,3.3a10.522,10.522,0,0,1-4.129-9.233,7.037,7.037,0,0,0-1.966,6.607c-4.113.859-8.391-1.5-8.969-5.054a6.615,6.615,0,0,0-.1.842,6.409,6.409,0,0,0,5.484,6.392,17.69,17.69,0,0,0,6.046,0,14.271,14.271,0,0,1-.958-4.46l.2.727a15.025,15.025,0,0,0,1.008,2.511,8.375,8.375,0,0,0,2.428,2.99,8.883,8.883,0,0,0,1.42,1.189,5.305,5.305,0,0,1,.595-.975,3.882,3.882,0,0,1,2.825-1.751,5.715,5.715,0,0,0-2.874,2.428,4.047,4.047,0,0,0-.3,3.023,6.393,6.393,0,0,0,.413,2.081,8.391,8.391,0,0,0,5.88,5.021,18.582,18.582,0,0,0,14.09-1.387,8.623,8.623,0,0,1-1.189-4.823,11.182,11.182,0,0,0,1.156,4.03,6.789,6.789,0,0,0,1.371,1.652,12.851,12.851,0,0,0,3.733,2.858,18.169,18.169,0,0,0,9.91,1.652A23.472,23.472,0,0,0,344,71.644a17.1,17.1,0,0,0,3.386-2.973,13.107,13.107,0,0,0,1.4-1.9,7.45,7.45,0,0,0,1.338-3.3h0a8.257,8.257,0,0,1-.529,3.023,7.582,7.582,0,0,0,1.437.347,12.669,12.669,0,0,0,6.805-1.008,14.618,14.618,0,0,0,5.418-4.229,9.512,9.512,0,0,0,1.652-2.758,2.669,2.669,0,0,1,.165-.595,13.643,13.643,0,0,1-2.346-.4h1.9a11.162,11.162,0,0,0,2.461-.182,9.531,9.531,0,0,0,4.113-1.024,8.573,8.573,0,0,0,4.493-5.8C371.208,56.646,361.116,57.885,355.764,51.972Z" transform="translate(1542.06 292.466)" fill="#bce8e5" opacity="0.4"/>
    <path id="Path_354" data-name="Path 354" d="M282.281,37.1a12.206,12.206,0,0,0-3.188-.3l.1-.264a9.1,9.1,0,0,0,.215-5.467,14.585,14.585,0,0,0-2.626-4.79,14.238,14.238,0,0,0-8.919-4.509,18.07,18.07,0,0,0-5.253.182,16.948,16.948,0,0,0-.512-3.964,15.675,15.675,0,0,0-6.409-8.341,12.586,12.586,0,0,0-10.158-1.652q-.545.132-1.09.3a10.159,10.159,0,0,0-7.433-5.1,12.487,12.487,0,0,0-10.869,3.023,14.866,14.866,0,0,0-3.3,4.509,12.553,12.553,0,0,0-1.008,5.93,8.771,8.771,0,0,0,1.454,4.443,5.435,5.435,0,0,0-1.173.793,7.829,7.829,0,0,0-2.445,3.766,12.864,12.864,0,0,0-1.4-.512,16.1,16.1,0,0,0-5.55-.562,13.363,13.363,0,0,0-5.3,1.586c-3.3,1.652-6.409,3.584-8.11,7a10.141,10.141,0,0,0-.908,2.907,9.349,9.349,0,0,0-.925-.215,12.14,12.14,0,0,0-7.02.611,11.959,11.959,0,0,0-6.871,10.34,10.423,10.423,0,0,0,7.862,10.373,12.669,12.669,0,0,0,7.218-.462,18.945,18.945,0,0,0,4.129-1.966,13.562,13.562,0,0,0,2.4,2.478,18.8,18.8,0,0,0,10.241,3.65,14.288,14.288,0,0,0,5.087-.5c.826-.231,1.652-.347,2.511-.628a24.779,24.779,0,0,0,2.56-1.09,16.172,16.172,0,0,0,3.882-2.527,15.444,15.444,0,0,0,10.423,4.311,23.125,23.125,0,0,0,9.811-2.131,18.269,18.269,0,0,0,5.831-4.328,22.91,22.91,0,0,0,9.448,4.014,29.252,29.252,0,0,0,7.862.529,21.753,21.753,0,0,0,7.416-1.9c3.948-1.817,8.259-5.269,8.887-9.828A8.8,8.8,0,0,0,282.281,37.1Z" transform="translate(818.316 94.462)" fill="#a2b9b9"/>
    <path id="Path_355" data-name="Path 355" d="M286.609,48.887a14.156,14.156,0,0,1-5.038,4.955,21.787,21.787,0,0,1-15.048,2.791,27.238,27.238,0,0,1-8.044-2.312,17.655,17.655,0,0,1-2.56-1.454c.231-.248.446-.512.661-.776-.281.231-.578.446-.842.644-1.074.776-2.18,1.536-3.3,2.246l-.4.248a22.221,22.221,0,0,1-2.56,1.52,22.431,22.431,0,0,1-4.344,1.47,23.586,23.586,0,0,1-4.79.793,15.609,15.609,0,0,1-4.03-.38,14.733,14.733,0,0,1-5.385-1.8,10.01,10.01,0,0,1-2.692-2.23,10.555,10.555,0,0,0-1.487-1.933c.165.347.33.71.529,1.057a11.2,11.2,0,0,0,1.239,1.652,24.215,24.215,0,0,1-13.544,4,22.3,22.3,0,0,1-9.646-3.023,11.959,11.959,0,0,1-2.527-2.081h0a12.6,12.6,0,0,1-2.18-2.858,13.479,13.479,0,0,0,1.4,2.676,25.108,25.108,0,0,1-3.617,1.4,13.1,13.1,0,0,1-6.772.363,9.762,9.762,0,0,1-7.4-9.1,10.769,10.769,0,0,1,5.946-10.01,11.563,11.563,0,0,1,6.888-.826,7.862,7.862,0,0,1,.941.215c0,.446-.083.908-.1,1.354a10.042,10.042,0,0,0,.182,1.437,12.737,12.737,0,0,0,.628,1.949,11.926,11.926,0,0,1,.479-5.269,8.04,8.04,0,0,1,.347-.875,10.527,10.527,0,0,1,.545-1.272c1.5-3.072,4.427-4.708,7.284-6.31a14.536,14.536,0,0,1,9.911-1.652,11.746,11.746,0,0,1,1.784.479,5.7,5.7,0,0,0,.842,4.262,7.053,7.053,0,0,1,.479-5.533,9.779,9.779,0,0,1,2.1-2.775,3.47,3.47,0,0,1,.677-.512h0l.529-.281h0a13.412,13.412,0,0,1,3.155-.925,7.747,7.747,0,0,1,2.313-.2l.512.083h.165a5.533,5.533,0,0,0-1.734-.3,19.1,19.1,0,0,0-2.56.2,10.8,10.8,0,0,0-2.164.611,9.911,9.911,0,0,1-1.156-4.328,11.215,11.215,0,0,1,.875-5.467,13.924,13.924,0,0,1,3.3-4.344,12.4,12.4,0,0,1,9.911-3.2,9.91,9.91,0,0,1,7.73,4.84,14.14,14.14,0,0,0-2.709,1.206,8.342,8.342,0,0,0-1.536,1.338,10.951,10.951,0,0,1,7.532-2.362,12.438,12.438,0,0,1,7.879,2.329,16.518,16.518,0,0,1,6.1,7.466,12.454,12.454,0,0,1,.611,2.775,13.212,13.212,0,0,1,.2,3.006v.76a17.192,17.192,0,0,0,.2-2.428h.231a16.617,16.617,0,0,1,4.873.132,14.47,14.47,0,0,1,8.259,4.46,14.14,14.14,0,0,1,2.263,4.014,8.375,8.375,0,0,1,.149,5.319l-.2.644h0a14.865,14.865,0,0,0-2.412.529,1.354,1.354,0,0,0-.826.479h0a4.526,4.526,0,0,1,2.313-.512H278.5a11.1,11.1,0,0,1,3.023.562,8.639,8.639,0,0,1,5.286,4.708,7.813,7.813,0,0,1-.2,6.359Z" transform="translate(819.071 92.614)" fill="#fff"/>
    <path id="Path_356" data-name="Path 356" d="M215.593,14.02a3.485,3.485,0,0,0,.231,1.487,8.259,8.259,0,0,1,2.246-5.2,9.333,9.333,0,0,1,1.652-1.387A7.762,7.762,0,0,1,220.8,8.04,14.14,14.14,0,0,1,223.5,6.834,6.608,6.608,0,0,0,222.3,5.1C219.194,5.612,215.841,9.56,215.593,14.02Z" transform="translate(1017.887 5.868)" fill="#bce8e5" opacity="0.3"/>
    <path id="Path_357" data-name="Path 357" d="M208.4,17.494a10.8,10.8,0,0,1,2.164-.611,19.094,19.094,0,0,1,2.56-.2,5.534,5.534,0,0,1,1.4.2,16.517,16.517,0,0,1,4.559,1.14,17.625,17.625,0,0,1,4.559,2.544c-2.957-4.476-9.25-7.086-14.222-4.955A.314.314,0,0,1,209,15.5,14.32,14.32,0,0,1,208,7.93a11.827,11.827,0,0,0-.76,5.2,9.911,9.911,0,0,0,1.156,4.361Z" transform="translate(991.726 7.713)" fill="#bce8e5" opacity="0.3"/>
    <path id="Path_358" data-name="Path 358" d="M286.757,34.761a8.639,8.639,0,0,0-5.286-4.708,11.1,11.1,0,0,0-3.023-.562h-1.536A4.526,4.526,0,0,0,274.6,30h0a1.354,1.354,0,0,1,.826-.479A14.864,14.864,0,0,1,277.837,29h0l.2-.644a8.374,8.374,0,0,0-.149-5.319,14.14,14.14,0,0,0-2.263-4.014,14.221,14.221,0,0,0-6.805-4.129c2.841,1.817,5.154,4.229,5.269,7.928a16.518,16.518,0,0,1-1.916,8.259c.512-.083,1.041-.165,1.569-.215a14.437,14.437,0,0,1,6.772.2,3.089,3.089,0,0,1,1.85,4.014,9.217,9.217,0,0,1-5.087,5.649,21.11,21.11,0,0,1-15.345.347,18.731,18.731,0,0,1-8.8-5.533,14.42,14.42,0,0,1-12.8,8.54c-6.723.149-14.321-4.063-16.518-10.637a14.982,14.982,0,0,0,1.569,6.1.33.33,0,0,1-.116.446c-4.807,3.056-14.734,6.293-20.5,3.882-3.155-1.3-4.625-4.1-5.93-7.516a17.426,17.426,0,0,0,1.173,7.516c0,.231-.727.347-.908.38-4.063.479-8.969,0-11.959-3.105a8.837,8.837,0,0,1-2.412-5.748,9.911,9.911,0,0,0-.462,3.535,9.762,9.762,0,0,0,7.317,9.184,13.1,13.1,0,0,0,6.772-.363A25.106,25.106,0,0,0,202,46.455a13.479,13.479,0,0,1-1.354-2.61,12.6,12.6,0,0,0,2.18,2.858h0a11.958,11.958,0,0,0,2.478,2.015,22.3,22.3,0,0,0,9.663,3.072,24.215,24.215,0,0,0,13.544-4,11.2,11.2,0,0,1-1.239-1.652c-.2-.347-.363-.71-.529-1.057a10.552,10.552,0,0,1,1.487,1.933,10.009,10.009,0,0,0,2.692,2.23,14.734,14.734,0,0,0,5.385,1.8,15.609,15.609,0,0,0,4.03.38,23.587,23.587,0,0,0,4.79-.793,22.431,22.431,0,0,0,4.344-1.47,22.223,22.223,0,0,0,2.56-1.52l.4-.248c1.107-.71,2.213-1.47,3.3-2.246.264-.2.562-.413.842-.644-.215.264-.429.529-.661.776a17.657,17.657,0,0,0,2.56,1.454,27.238,27.238,0,0,0,8.044,2.312,21.787,21.787,0,0,0,15.048-2.791,14.155,14.155,0,0,0,5.038-4.955,7.813,7.813,0,0,0,.149-6.541Z" transform="translate(1026.192 109.308)" fill="#bce8e5" opacity="0.5"/>
    <path id="Path_359" data-name="Path 359" d="M207.78,14.22Z" transform="translate(969.397 11.812)" fill="#fff"/>
  </g>
</svg>
