<svg xmlns="http://www.w3.org/2000/svg" width="1164.263" height="355.154" viewBox="0 0 1164.263 355.154">
  <g id="tug_of_war_illu-01" data-name="tug of war illu-01" transform="translate(-194.425 -355.485)">
    <path id="Path_366" data-name="Path 366" d="M270.848,708.408s-95-150.66,16.826-222.56c62.4-40.12,147.59,31.1,210.858-76.569,36.822-62.667,165.671-81.687,230.115,3.869s119.822,85.123,164.278,69.286c50.984-18.146,73.38-72.779,153.187-61.227,92.24,13.354,79.889,94.295,147.858,80.2,131.071-27.182,228.177,128.1,137.575,208.06Z" transform="translate(-22.784)" fill="#e9f3fe"/>
    <path id="Path_367" data-name="Path 367" d="M1349.27,1213.326H199.294a1.143,1.143,0,0,1-1.114-1.167h0a1.143,1.143,0,0,1,1.114-1.159H1349.27a1.143,1.143,0,0,1,1.114,1.163h0A1.143,1.143,0,0,1,1349.27,1213.326Z" transform="translate(-2.206 -502.687)" fill="#2e3552"/>
    <path id="Path_368" data-name="Path 368" d="M2208.068,681.221s-30.9,32.457-39.344,35.278c-13.441,4.483-23.635,7.382-29.282,9.3h0s-6.97-.825-9.258.982-2.933,2.813-2,3.588,9.642.223,11.259,0,6.479-.652,6.479-.652l-.186-.111c9.4-.458,22.052-2.244,27.327-3.613,8.69-2.252,35.93-23.838,39.444-28.535C2222.189,684.512,2214.275,678.144,2208.068,681.221Z" transform="translate(-1172.022 -190.948)" fill="#ed975d"/>
    <path id="Path_369" data-name="Path 369" d="M2356.989,652.319c-1.563-.313-4.273-6.017-4.224-15.259l-.705.136-11.878,2.343s.264,3.741.268,7.267a29.57,29.57,0,0,1-.276,4.7c-2.293.087-3.844.19-3.844.19s-9.283,8.248-10.034,12.645,16.95,4.289,22.958,3.753,7.75-15.771,7.75-15.771Z" transform="translate(-1290.394 -165.449)" fill="#ffb27d"/>
    <path id="Path_370" data-name="Path 370" d="M2360,639.744s.264,3.741.269,7.267c6.652-.177,10.178-6.24,11.625-9.6Z" transform="translate(-1310.208 -165.654)" fill="#ed975d"/>
    <path id="Path_371" data-name="Path 371" d="M2377.482,554.653c-2.635-1.621-6.85.3-6.85.3,1.46-2.062,6.772-1.365,6.772-1.365-10.611-2.277-12.814,4.537-12.987,5.126-6.677-6.05-16.888,4.368-19.383,7.147-2.475,2.157-4.908,6.388-1.135,15.8l1.135,3.675,14.339,1.035,2.677,3.563s1.616-3.712,3.74-2.553c3.3,1.819,9.733-5.5,7.7-15.14a25.385,25.385,0,0,0-.78-2.887,5.785,5.785,0,0,0,2.2.549c1.93,0,4.854-4.912,5.25-6.566S2380.117,556.27,2377.482,554.653Z" transform="translate(-1300.127 -116.13)" fill="#2c3a64"/>
    <path id="Path_372" data-name="Path 372" d="M2347.142,613.331s15.738.289,15.765-9.514,2.083-16.369-7.967-16.967-12.01,3.134-12.814,6.4S2343.05,613,2347.142,613.331Z" transform="translate(-1299.568 -135.909)" fill="#ffb27d"/>
    <path id="Path_373" data-name="Path 373" d="M2357.154,597.532c6.6,1.715,9.486-.054,9.486-.054a18.721,18.721,0,0,1-6.1-11.073s-10.1-6.009-14.146-2.293c-1.03-.887-2.866-1.53-5.3,1.406-3.658,4.417-.412,12.241-.412,12.241,1.5.177,1.86-4.949,2.647-7.456a12.251,12.251,0,0,1,3.439-4.565c.306,1.13,3.457,12.15,11.362,15.82a36.7,36.7,0,0,1-6.306-7.729A11.109,11.109,0,0,0,2357.154,597.532Z" transform="translate(-1298.199 -133.625)" fill="#2c3a64"/>
    <path id="Path_374" data-name="Path 374" d="M2254.857,868.837c-4.479,10.183-10.174,23.442-15.169,35.146l-2.977,6.978c-5.02,11.787-8.747,20.621-8.747,20.621.313,27.817-38.66,61.689-38.66,61.689l-4.413-3.085s21.071-28.869,23.949-61.966a279.311,279.311,0,0,1,13.2-62.72c2.751-8.289,5.218-14.435,6.632-17.779a15.313,15.313,0,0,1,3.427-.7l21.6,21.1Z" transform="translate(-1206.023 -288.818)" fill="#2b478b"/>
    <path id="Path_375" data-name="Path 375" d="M2307.768,868.848c-4.478,10.183-10.173,23.442-15.168,35.146l-17.66-38.474c2.751-8.289,5.217-14.435,6.632-17.779a15.317,15.317,0,0,1,3.427-.7l21.6,21.1Z" transform="translate(-1259.387 -288.83)" fill="#233862"/>
    <path id="Path_376" data-name="Path 376" d="M2367.573,981.885l-4.764,1.7s-17.734-50.793-25.054-58.613c-14.174-15.107-35.055-80.986-35.055-80.986l32.168-9.152c4.185,4.054,12.339,12.991,13.131,31.109.875,19.949,2.825,43.11,3.184,47.614h0a1.569,1.569,0,0,0,.45.907C2373.565,938.9,2367.573,981.885,2367.573,981.885Z" transform="translate(-1277.258 -281.655)" fill="#2b478b"/>
    <path id="Path_377" data-name="Path 377" d="M2345.022,690.538a70,70,0,0,1-4.219,9.411s-15.693,25.318-15.164,27.751,8.491,20.142,6.751,21.26c-9.234,5.951-46.368,3.444-45.684-1.184s5.836-13.5,6.125-23.508c.152-5.432-.529-12.257-.351-18.666,0-.231,0-.462.021-.689a23.662,23.662,0,0,1-4-4.8c-3.073-4.949-2.549-8.9-2.549-8.9s10.31-12.715,14.286-15.556,12.372-3.114,12.372-3.114-6.458,8.248-6.6,11.106,16.975,3.86,19.647,2,7.63-12.484,7.63-12.484,10.7.412,12.847,4.4C2347.814,680.673,2346.664,685.927,2345.022,690.538Z" transform="translate(-1266.94 -186.296)" fill="#699dee"/>
    <path id="Path_378" data-name="Path 378" d="M2296.109,724.207a33.621,33.621,0,0,1,0,4.363c0-.231,0-.462.021-.689a23.671,23.671,0,0,1-4-4.8c-.19-1.522.342-3.246,2.326-5.023,6.153-5.51,7.8-6.438,7.8-6.438S2295.964,721.2,2296.109,724.207Z" transform="translate(-1269.071 -209.259)" fill="#4a75cb"/>
    <path id="Path_379" data-name="Path 379" d="M2390.75,725.58s-15.692,25.318-15.165,27.751c-15.036-28.725,10.311-35.645,19.384-37.171A70.1,70.1,0,0,1,2390.75,725.58Z" transform="translate(-1317.203 -211.927)" fill="#4a75cb"/>
    <path id="Path_380" data-name="Path 380" d="M2179.357,1192.788s-.276-.685-.606-1.65c-.544-1.592-1.237-3.947-1.022-5.217a3.507,3.507,0,0,0-.305-2.161c-.33-.672-3.085,1.748-4.454.6-2.644-2.223-3.254-2.408-3.382-2.413h-.029s-5.8,3.679-7.312,5.052c-2.689,2.446-5.629,2.837-7.122,3.274a2,2,0,0,0-1.316,1.2c-.329.862-.667,2.038-.313,2.541l14.076-.029.033-.033a3.065,3.065,0,0,1,2.681-.652c1.138.144,1.959.466,3.068.639h3.3C2179.518,1193.584,2179.357,1192.788,2179.357,1192.788Z" transform="translate(-1185.583 -485.617)" fill="#233862"/>
    <path id="Path_381" data-name="Path 381" d="M2430.168,1192.9s-.276-.685-.6-1.65c-.54-1.592-1.237-3.951-1.01-5.217a3.5,3.5,0,0,0-.3-2.161,3.345,3.345,0,0,0-.763-1.035s-2.326,2.776-3.691,1.625c-2.644-2.231-3.25-2.417-3.377-2.417h-.029s-5.807,3.671-7.32,5.04c-2.7,2.437-5.638,2.825-7.131,3.254a2.025,2.025,0,0,0-1.32,1.2c-.33.862-.673,2.037-.317,2.541h14.075l.033-.033a3.076,3.076,0,0,1,2.681-.643c1.138.148,1.959.47,3.068.643h3.3C2430.329,1193.7,2430.168,1192.9,2430.168,1192.9Z" transform="translate(-1337.381 -485.676)" fill="#233862"/>
    <path id="Path_382" data-name="Path 382" d="M1312.169,806.29l-1.947.945a2.4,2.4,0,0,1-.152-.243S1312.045,806.327,1312.169,806.29Z" transform="translate(-674.826 -264.886)" fill="#ee9849"/>
    <path id="Path_383" data-name="Path 383" d="M1147.077,538.539s-5.927-4.949-12.81-4.145-14.662,3.712-15.647,17.511,3.98,19.742-3.712,25.157-6.186,10.8-4.434,16.109c0,0,3.328-8.343,7.547-7.531,0,0-5.547,7.011-4.974,11.96s5.848,9.486,8.624,11.135a7.15,7.15,0,0,1,6.929-1.967c9.052,1.967,21.033-12.294,19.841-18.22S1147.077,538.539,1147.077,538.539Z" transform="translate(-553.743 -105.072)" fill="#9b3d38"/>
    <path id="Path_384" data-name="Path 384" d="M1310.242,966.212l-5.955.371a302.16,302.16,0,0,1-11.239-32.837c-2.351-8.611-4.244-17.635-4.631-25.318-.322-6.455-.549-11.408-.552-11.412-.235-.289-1.613-1.65-3.737-3.955-.7-.779-1.5-1.65-2.363-2.66a156.211,156.211,0,0,1-18.526-26.514l-.025-.037a144.162,144.162,0,0,1-8.9-19.281c0-.033-.029-.058-.037-.078s-5.774-13.263-7.011-20.621h0c-.083-.482-.14-.944-.182-1.369a11.553,11.553,0,0,1-.041-1.213l.231-.111,25.912-12.608a117.119,117.119,0,0,1,12.076,20.584c.388.854.775,1.724,1.171,2.6l.883,1.975.215.487c9.131,20.72,18.468,50.826,20.53,63.277.788,4.813,1.3,18.27,1.65,32.02C1310.126,947.616,1310.242,966.212,1310.242,966.212Z" transform="translate(-637.67 -266.225)" fill="#ee9849"/>
    <path id="Path_385" data-name="Path 385" d="M1287.552,833.887l-3.39,58.839c-.705-.779-1.5-1.649-2.363-2.66a156.177,156.177,0,0,1-18.526-26.514l-.025-.037a160.266,160.266,0,0,1-8.9-19.915.453.453,0,0,0-.041-.091c0-.025-4.994-11.688-7.011-19.957h0c-.083-.482-.14-.944-.181-1.369a11.386,11.386,0,0,1-.042-1.212l.231-.111s25.595-12.447,26.9-12.859a185.662,185.662,0,0,1,11.073,20.827c.388.854.775,1.724,1.171,2.6l.882,1.975Z" transform="translate(-637.317 -265.89)" fill="#e58638"/>
    <path id="Path_386" data-name="Path 386" d="M1257.522,901.661c-1.963,5.329-8.863,21.079-15.239,35.426-6.306,14.2-12.1,27.022-12.1,27.022l-5.889.6a266.116,266.116,0,0,1,.474-29.945c1.04-13.449,3.51-27.772,9.135-34.428a1.134,1.134,0,0,0,.058-1.064h0c-.784-2.363-3.947-12.063-7.143-24.332-.78-2.974-1.555-6.092-2.305-9.3-1.085-4.648-2.1-9.485-2.953-14.261a1.417,1.417,0,0,0-.045-.231c-.412-1.076-1.052-2.887-1.777-5.3a106.273,106.273,0,0,1-2.99-12.855,3.05,3.05,0,0,0-.074-.462c-1.868-11.428-.483-18.171-.483-18.171s21.384-2.809,28.222-5.159,11.024-1.893,11.024-1.893S1261.935,889.705,1257.522,901.661Z" transform="translate(-618.361 -265.463)" fill="#ee9849"/>
    <path id="Path_387" data-name="Path 387" d="M1295.393,714.981c-.449-.746-4.124-4.421-12.373-6.058,0,0-.5-.07-3-1.86h0c-7.621-5.7-15.622-12.005-24.9-17.977-4.925-3.172-12.307-10.455-19.982-17.734-3.885-3.683-7.836-7.37-11.6-10.521-2.021-1.7-18,8.521-16.579,10.4,7.539,9.943,26.778,21.248,37.567,28.284,9.465,6.186,23.508,11.176,30.242,13.37h0s3.576,1.114,3.823,1.3a56.322,56.322,0,0,0,6.681,5.06c2.26,1.212,5.621.788,9.284-.347C1296.964,718.169,1296.135,716.214,1295.393,714.981Z" transform="translate(-613.761 -179.305)" fill="#ed975d"/>
    <path id="Path_388" data-name="Path 388" d="M1246.9,667.792c-.854,3.477-3.37,9.836-10.4,10.393-9.007.705-14.022-20.526-4.417-23.615,1.237,1.06,1.192,1.006,3.213,2.7C1239.047,660.422,1243.015,664.109,1246.9,667.792Z" transform="translate(-624.776 -175.737)" fill="#233862"/>
    <path id="Path_389" data-name="Path 389" d="M1179.662,536.871c-3.3-2.7-17.322-13.276-22.65-2.334,0,0-5.419,3.279-6.013,13.44-.606,10.368,8.541,17.886,11.708,15.474,2.029-1.547,4.64,2.26,4.64,2.26l2.619-5.679,12.748-2.866.606-4.013C1185.778,542.761,1182.59,538.731,1179.662,536.871Z" transform="translate(-579.026 -102.353)" fill="#a9453d"/>
    <path id="Path_390" data-name="Path 390" d="M1190.6,733.207c-5.7-13.577-27.632-65.867-11.375-89.635.14-.07.276-.128.413-.19,6.087-2.681,16.571-1.171,19.429,1.213,14.084,11.754,16.4,19.2,17.866,29.038,1.522,10.2,3.431,20.72,11.469,31.847a51.022,51.022,0,0,0,3.427,4.248C1242.067,721.16,1193.658,740.482,1190.6,733.207Z" transform="translate(-592.963 -168.328)" fill="#2b478b"/>
    <path id="Path_391" data-name="Path 391" d="M1204.4,624.922c.552.759,4.375,3.068-4.772,3.068-7.135,0-12.306-2.5-12.022-2.932.932-1.4,1.983-5.015.33-14.608h.759l12.785.363s.371,3.934.982,7.6A21.339,21.339,0,0,0,1204.4,624.922Z" transform="translate(-600.972 -149.813)" fill="#ffb27d"/>
    <path id="Path_392" data-name="Path 392" d="M1203.028,610.863s.371,3.935.982,7.6c-6.945.969-11.664-4.718-13.75-7.964Z" transform="translate(-602.523 -149.843)" fill="#ed975d"/>
    <path id="Path_393" data-name="Path 393" d="M1199.032,580.894s-16.356,2.767-17.924-7.444-4.73-16.736,5.646-18.934,13.008,1.386,14.36,4.669S1203.255,579.913,1199.032,580.894Z" transform="translate(-596.084 -116.55)" fill="#ffb27d"/>
    <path id="Path_394" data-name="Path 394" d="M1193.523,550.739c-3-2.681-4.809-1.724-5.741-.639-10.149-3.3-14.385,4.607-14.385,4.607a19.751,19.751,0,0,1-4.627,12.5s3.271,1.39,9.9-1.431a11.818,11.818,0,0,0,4.99-4.693,38.568,38.568,0,0,1-5.362,9.036c7.651-5.056,9.214-17.008,9.358-18.266,1.138.747,3.406,2.4,4.3,4.219,1.213,2.474,2.4,7.778,3.926,7.358C1195.882,563.438,1198.027,554.777,1193.523,550.739Z" transform="translate(-589.719 -113.709)" fill="#a9453d"/>
    <path id="Path_395" data-name="Path 395" d="M1234.775,733.9c-38.767-9.844-50.6-43.588-50.6-43.588s36.251,9.836,40.8,13.441C1226.5,713.937,1226.964,722.763,1234.775,733.9Z" transform="translate(-599.391 -196.738)" fill="#233862"/>
    <path id="Path_396" data-name="Path 396" d="M1254.224,1118.692c-6.306,14.2-12.1,27.021-12.1,27.021l-5.889.6a266.084,266.084,0,0,1,.474-29.945C1239.847,1117.995,1245.41,1119.677,1254.224,1118.692Z" transform="translate(-630.273 -447.084)" fill="#ffb27d"/>
    <path id="Path_397" data-name="Path 397" d="M1375.783,1138.527l-5.955.371a302.171,302.171,0,0,1-11.239-32.837c4.063.2,12.245,0,16.637-4.231C1375.668,1119.931,1375.783,1138.527,1375.783,1138.527Z" transform="translate(-704.428 -438.54)" fill="#ffb27d"/>
    <path id="Path_398" data-name="Path 398" d="M1401.981,1190.751a2.1,2.1,0,0,0-1.378-1.282c-1.572-.47-4.669-.9-7.485-3.5-1.583-1.456-7.671-5.361-7.671-5.361h-.033c-.132,0-.775.194-3.576,2.52-1.452,1.2-3.877-1.745-3.877-1.745a3.433,3.433,0,0,0-.824,1.081,3.713,3.713,0,0,0-.338,2.277c.211,1.34-.528,3.815-1.109,5.489-.354,1.019-.651,1.736-.651,1.736s-.174.825,2.825,1.237l3.493.033c1.172-.178,2.038-.508,3.238-.656a3.248,3.248,0,0,1,2.825.705l.029.033,14.847.128C1402.674,1192.9,1402.323,1191.663,1401.981,1190.751Z" transform="translate(-714.558 -484.83)" fill="#2b478b"/>
    <path id="Path_399" data-name="Path 399" d="M1255.144,1188.963c-1.576-.445-4.677-.825-7.535-3.386-1.6-1.435-7.745-5.267-7.745-5.267h-.033c-.136,0-.771.2-3.542,2.569-1.431,1.237-3.9-1.691-3.9-1.691a3.45,3.45,0,0,0-.8,1.1,3.68,3.68,0,0,0-.305,2.276c.231,1.336-.47,3.823-1.031,5.506-.338,1.022-.627,1.744-.627,1.744s-.161.825,2.845,1.2h3.493c1.167-.194,2.029-.536,3.229-.7a3.243,3.243,0,0,1,2.829.664l.033.033,14.847-.086c.371-.532,0-1.765-.351-2.673A2.116,2.116,0,0,0,1255.144,1188.963Z" transform="translate(-626.55 -484.654)" fill="#2b478b"/>
    <path id="Path_400" data-name="Path 400" d="M497.418,800.058l-.008-3,877.254-2.565.008,3-808.166,1.8Z" transform="translate(-178.029 -257.952)" fill="#233862"/>
    <g id="man" transform="translate(773.841 423.502)">
      <path id="Path_401" data-name="Path 401" d="M1704.115,782.5s-10.558-2.248-14.921.627-7.6,7.642-4.862,8.723,11.085-1.212,12.541-2.095,5.815-2.112,6.314-2.656S1704.115,782.5,1704.115,782.5Z" transform="translate(-1678.525 -673.917)" fill="#ffb27d"/>
      <path id="Path_402" data-name="Path 402" d="M1986.4,618.56s44.154,31.756,44.154,45.968c0,7.16-10.723,26.588-35.683,29.372l-3.711-6.838s21.037-16.678,19.8-18.419-28.807-19.1-28.807-30.106A52.036,52.036,0,0,1,1986.4,618.56Z" transform="translate(-1854.111 -578.081)" fill="#e58638"/>
      <path id="Path_403" data-name="Path 403" d="M1695.882,1172.178s-7.469,7.951-17.491,9.242c0,0-6.7.054-6.7,6.211h35.468a59.574,59.574,0,0,0,.825-8.286c.174-4.087,5.861-8.285,5.861-8.285Z" transform="translate(-1671.69 -902.721)" fill="#233862"/>
      <path id="Path_404" data-name="Path 404" d="M1949.648,1177.872s-2.062,5.943-10.22,7.011c0,0-5.469.045-5.469,5.069H1962.9a21.741,21.741,0,0,0-1.431-7.448,63.445,63.445,0,0,0-3.563-7.424Z" transform="translate(-1825.796 -905.083)" fill="#233862"/>
      <path id="Path_405" data-name="Path 405" d="M1953.115,873.665s-28.457,53.717-23.858,62.163c9.745,17.92,12.607,54.6,11.515,57.144a21.347,21.347,0,0,1-17.524,3s-26.58-55.553-25.982-73.682c.825-24.927,29.884-63.409,29.884-63.409Z" transform="translate(-1804.229 -719.289)" fill="#233862"/>
      <path id="Path_406" data-name="Path 406" d="M1968,605.359s-3.394,12.785-15,13.573c0,0-4.516-4.124-6.318-7.857l-.647-1.332c-2.062-4.211-3.3-6.52-3.3-6.52h0c.354-.412,12.088-13.226,12.311-12.723C1960.163,602.064,1968,605.359,1968,605.359Z" transform="translate(-1830.949 -561.584)" fill="#ffb27d"/>
      <path id="Path_407" data-name="Path 407" d="M1954.843,598.7c-.177,3.262-2.594,10.62-8.834,15.833-2.062-4.211-3.3-6.52-3.3-6.52h0C1943.056,607.7,1954.9,597.736,1954.843,598.7Z" transform="translate(-1830.937 -566.371)" fill="#ed975d"/>
      <path id="Path_408" data-name="Path 408" d="M1918.932,577.008s18.175-3.869,15.589-15.148-1.975-19.384-13.684-17.383-12.975,6.809-13.028,10.785S1914.14,577.722,1918.932,577.008Z" transform="translate(-1810.43 -534.372)" fill="#ffb27d"/>
      <path id="Path_409" data-name="Path 409" d="M1795.062,878.44s-49.135,88.257-76.462,122.64c0,0,7.894,6.6,20.493,2.8,0,0,40.937-33.154,52.587-51.964s37.53-50.9,54.657-63.9Z" transform="translate(-1699.253 -730.782)" fill="#2b478b"/>
      <path id="Path_410" data-name="Path 410" d="M1964.142,688.584s-2.607,41.679-11,46.805c-9.646,5.893-58.814-2.211-55.7-7.861a71.464,71.464,0,0,0,6.393-15.808c2.454-8.838,4.244-21.033,2.866-36.664a98.469,98.469,0,0,1-.066-16.459c.825-10.191,3.328-19.194,7.308-24.044,6.046-7.378,22.6-15.994,22.6-15.994S1966.1,630.792,1964.142,688.584Z" transform="translate(-1804.253 -578.081)" fill="#ee9849"/>
      <path id="Path_411" data-name="Path 411" d="M1913.14,756.978c2.454-8.838,4.244-21.033,2.866-36.664a98.419,98.419,0,0,1-.067-16.46c3.473-5.271,8.434-8.586,15.454-8.248C1931.394,695.586,1944.059,732.707,1913.14,756.978Z" transform="translate(-1813.562 -623.338)" fill="#e58638"/>
      <path id="Path_412" data-name="Path 412" d="M1818.8,647.194s-28.081,26.395-43.2,37.159c0,0-47.428,16.084-48.665,17.755,0,0-.277,4.087,1.847,6.689,0,0,46.7-3.757,54.851-6.792s40.652-20.753,43.386-24.465S1832.4,644.632,1818.8,647.194Z" transform="translate(-1704.143 -594.812)" fill="#ee9849"/>
      <path id="Path_413" data-name="Path 413" d="M1929.26,525.086c.14-.219.507-.412,1.365-.6a3.512,3.512,0,0,0-1.683-.235c-.35-1.2-1.3-3.266-3.443-3.5a2.654,2.654,0,0,1,1.526,1.724c-2.75-2.161-8.145-3.254-22.2-.095-18.53,4.161-10.624,15.474-7.992,16.583s8.178-3.741,12.748-4.017,6.376,6.236,8.038,6.929.825-.825,2.772-2.062,2.635,2.215,2.354,4.57,3,4.949,3,4.949l2.433-3.563c2.433-3.559,3.254-17.293,1.542-19.953C1929.565,525.564,1929.417,525.325,1929.26,525.086Z" transform="translate(-1801.663 -520.408)" fill="#2b478b"/>
    </g>
    <path id="Path_414" data-name="Path 414" d="M2807.735,931.443c-10.645,0-20.18-2.252-28.515-6.759a54.345,54.345,0,0,1-20.134-19.173,49.682,49.682,0,0,1-5.288-11.16c-9.287-24.662-21.857-45.122-37.422-60.807A124.122,124.122,0,0,0,2673.8,805.2c-26.943-10.677-49.127-8.174-49.35-8.149l-.359-2.982a84.412,84.412,0,0,1,14.983,0,124.272,124.272,0,0,1,35.831,8.327,127.111,127.111,0,0,1,43.6,29.022c15.857,16,28.684,36.833,38.124,61.916l.037.116a46.62,46.62,0,0,0,5.032,10.57,51.453,51.453,0,0,0,18.971,18.035c14.307,7.712,32.23,6.681,53.725.276a2.154,2.154,0,0,1,2.706,1.559h0a2.731,2.731,0,0,1-1.89,3.258A98.351,98.351,0,0,1,2807.735,931.443Z" transform="translate(-1478.491 -257.521)" fill="#2b478b"/>
    <path id="Path_415" data-name="Path 415" d="M1545.717,806.656a47.41,47.41,0,0,0-5.126-8.071,1.1,1.1,0,0,0,.487-.186c.615-.5,2.627-3.576,2.347-3.968s-2.746-2.169-3.745-1.621c0,0-3.633,1.142-1.6,5.4-1.831.66-4.8,2.169-4.66,5.015a50.461,50.461,0,0,1,0,6.4,5.552,5.552,0,0,0,4.512-4.256,41.822,41.822,0,0,0,1.456-6.792c.2,0,.412.033.6.037a16.764,16.764,0,0,1-.338,7.213c-1.307,5.225,5.361,9.836,5.456,12.294C1545.1,818.13,1547.045,809.935,1545.717,806.656Z" transform="translate(-810.13 -256.905)" fill="#ee9849"/>
    <path id="Path_416" data-name="Path 416" d="M1077.961,1160.39s7.473,5.6,18.926,2.643c0,0,9.23-2.1,11.255,2.5,0,0-14.158,7.192-17.734,9.16a42.9,42.9,0,0,0-7.51,5.633,3.711,3.711,0,0,1-5.361-.412c-.623-.763-1.336-1.679-2.115-2.734-2.182-2.961-7.271-12.517-7.271-12.517Z" transform="translate(-528.982 -472.949)" fill="#233862"/>
    <path id="Path_417" data-name="Path 417" d="M938.432,963.264s-4.537,10.492-15.057,8.562c0,0-21.446-17.7-36.136-36.091-4.776-5.972-8.842-12.014-11.23-17.548-9.75-22.571-36.066-56.241-52.789-73.3l41.852-15.144s13.408,26.972,31.249,60.1C909.18,913.712,924.332,940.787,938.432,963.264Z" transform="translate(-381.461 -278.664)" fill="#2b478b"/>
    <path id="Path_418" data-name="Path 418" d="M896.333,889.841l-9.073,45.894c-4.776-5.972-8.842-12.014-11.23-17.548-9.75-22.571-36.066-56.241-52.789-73.3l41.844-15.144S878.491,856.712,896.333,889.841Z" transform="translate(-381.03 -278.664)" fill="#233862"/>
    <path id="Path_419" data-name="Path 419" d="M1002.1,770.73l3.332,2.706s9.119-3.271,11.177,7.568c0,0,.548,4.615-2.38,4.623s-1.716-.5-5.86-.384-7.576-2.062-8.182-5.423l-1.979-2.846Z" transform="translate(-486.38 -243.991)" fill="#9c5f33"/>
    <path id="Path_420" data-name="Path 420" d="M865.518,685.468c2.66-2.776,2.446-4.829,2.446-4.829s-30.791-25.2-33.917-27.261c-2.128-1.4-24.807-21.5-35.406-33.76-5.258-6.079-11.774-3.712-19.223-1.584l-6.137,1.761c-7.423,2.128-9.341,12.492-3.258,17.528,17.124,14.183,45.609,30.135,50.938,33.488,13.235,8.327,39.134,18.216,39.134,18.216A16.407,16.407,0,0,0,865.518,685.468Z" transform="translate(-346.859 -152.922)" fill="#4a75cb"/>
    <path id="Path_421" data-name="Path 421" d="M896.055,1168.608s-.458,8.372,9.692,9.486c0,0,5.8.029,5.815,5.361l-29.5.095a22.877,22.877,0,0,1-1.064-6.755c-.161-3.534,3.423-12.785,3.423-12.785Z" transform="translate(-415.576 -475.076)" fill="#233862"/>
    <path id="Path_422" data-name="Path 422" d="M833.466,827.09s18.649,20.489,30.486,57.408c6.442,20.085-11.8,70.585-15.358,88.129,0,0-12.24,1.039-20.621-2.2,0,0-.635-36.239,4.26-64.168,2.738-15.635-24.551-33.435-36.478-61.677-8.112-19.219,1.757-18.893,13.886-19.355Z" transform="translate(-362.577 -276.014)" fill="#2b478b"/>
    <path id="Path_423" data-name="Path 423" d="M785.353,567.507a85.66,85.66,0,0,0-1.208-12.174l-16.909-8.582c3.918,15.886-4.706,25.743-4.706,25.743s21.235,5.4,31.616-.454a27.215,27.215,0,0,0-8.793-4.532Z" transform="translate(-343.878 -112.384)" fill="#9c5f33"/>
    <path id="Path_424" data-name="Path 424" d="M783.969,524.09s-15.457,11.094-22.221,1.361S748.439,510.6,758.036,503.1s14.1-5.126,17.152-2.429S787.816,520.952,783.969,524.09Z" transform="translate(-338.233 -83.773)" fill="#ab7041"/>
    <path id="Path_425" data-name="Path 425" d="M821.077,691.347c0,1.823-2.1,2.7-2.544,2.784-4.186.767-15.87,5.312-26.395,6.355-8.863.928-17.095.045-26.135-1.769-1.2-.24-4-1-4.207-2.145-.247-1.237-34.87-70.577-7.955-100.357.631-.7,5.943.561,10.805,1.712a19.92,19.92,0,0,0,12.274-1l4.557,2.384c5.6,3.118,16.183,14.2,17.42,22.889.631,4.421,3.159,7.691,3.889,11.581q.412,2.161.825,4.211c.553,2.689,1.118,5.242,1.7,7.675,1.584,6.574,3.254,12.232,4.9,17.119,1.745,5.192,3.456,9.51,4.986,13.119,1.988,4.685,3.662,8.186,4.71,10.867A13.282,13.282,0,0,1,821.077,691.347Z" transform="translate(-332.812 -141.331)" fill="#739af0"/>
    <path id="Path_426" data-name="Path 426" d="M834.9,720.324C786.026,697.3,769.1,653.1,769.1,653.1s39.707,14.649,49.49,18.46c.552,2.689,1.118,5.242,1.7,7.675,1.584,6.574,3.254,12.232,4.9,17.119,1.745,5.193,3.456,9.51,4.986,13.119C832.158,714.142,833.849,717.643,834.9,720.324Z" transform="translate(-348.157 -174.874)" fill="#4a75cb"/>
    <path id="Path_427" data-name="Path 427" d="M994.839,783.358l4.223,1.551s8.459-5.98,13.725,3.745c0,0,1.905,4.248-1.114,5.172s-1.918.054-6.153,1.464-8.413.412-10.013-2.631l-2.887-2.107Z" transform="translate(-483.024 -251.253)" fill="#ab7041"/>
    <path id="Path_428" data-name="Path 428" d="M857.62,694.1l2.272-5.918s-31.909-26.011-35.158-28.242c-2.219-1.518-24.275-18.006-35.031-30.857a22.5,22.5,0,0,0-21.879-7.58l-6.7,1.4a9.967,9.967,0,0,0-4.442,17.322c17.672,15.152,47.481,32.721,53.037,36.379,13.8,9.073,44.31,21.784,44.31,21.784A7.85,7.85,0,0,0,857.62,694.1Z" transform="translate(-338.896 -156.027)" fill="#739af0"/>
    <path id="Path_429" data-name="Path 429" d="M756.935,474a25.029,25.029,0,0,0-1.8-6.376s-.969,4.021-8.314,3.464-18.971.722-22.864,9.094a17.668,17.668,0,0,0-.664,1.649,19.4,19.4,0,0,1-.87-4.635c-1.4,3.6,0,8.108,0,8.108h0a3.191,3.191,0,0,1-.058.412c-1.621,1.369-2.982,5.63-2.982,5.63a5.112,5.112,0,0,1,2.747-2.442c-.016,6.508,2.606,12.855,7.242,14.756,6.78,2.771,6.722.66,13.539,5.18,0,0,1.831-2.268.582-3.794s-5.955-3.741-3.324-5.955,3.6.276,4.574-1.237-3.881-5.959,2.355-10.116S757.487,477.736,756.935,474Z" transform="translate(-317.806 -65.889)" fill="#233862"/>
    <path id="Path_430" data-name="Path 430" d="M215.906,924.454c-1.65-5.654-36.26-29.748-14.088-63.141,12.583-18.971,27.879-49,45.366-59.875,21.858-13.61,44.425-4.231,72.206-4.656v3c-27.219.412-48.376-9.861-69.764,3.448-17.115,10.653-33.764,40.318-45.172,59.512-20.65,34.734,16,54.344,15.8,60.972C220.158,926.763,216.236,925.576,215.906,924.454Z" transform="translate(0 -257.679)" fill="#233862"/>
    <path id="Path_431" data-name="Path 431" d="M389.329,1176.928s2.1,6.1,10.492,7.176c0,0,5.613.049,5.613,5.2H375.74a22.378,22.378,0,0,1,1.468-7.642,65.168,65.168,0,0,1,3.658-7.646Z" transform="translate(-106.538 -480.958)" fill="#233862"/>
    <path id="Path_432" data-name="Path 432" d="M398.218,939.212c-7.811,23.141-21.165,51.053-21.165,51.053a21.921,21.921,0,0,1-17.99-3.077c-1.122-2.619,1.815-40.268,11.82-58.666,1.563-2.887-.61-10.888-4.219-20.3C359.427,889.31,346.39,864.7,346.39,864.7l26.646-15.177s29.826,39.5,30.68,65.1C403.906,920.2,401.575,929.261,398.218,939.212Z" transform="translate(-89.292 -290.287)" fill="#ee9849"/>
    <path id="Path_433" data-name="Path 433" d="M637,786.159s9.2-1.683,12.678,1.514,6.273,7.378,1.7,7.6c-4.755.231-7.65-.285-8.817-1.27s-4.784-2.5-5.164-3.085S637,786.159,637,786.159Z" transform="translate(-260.05 -252.797)" fill="#ffb27d"/>
    <path id="Path_434" data-name="Path 434" d="M323.134,602.81S277.81,637.119,277.81,650c0,7.349,12.785,25.1,42.706,31.426L325.782,674s-26.2-19.8-24.943-21.561,26.642-17.8,26.642-29.1A53.386,53.386,0,0,0,323.134,602.81Z" transform="translate(-48.995 -145.324)" fill="#1e3d70"/>
    <path id="Path_435" data-name="Path 435" d="M630.515,1171.141s7.667,8.162,17.957,9.486c0,0,6.879.058,6.879,6.376H618.943a60.566,60.566,0,0,1-.845-8.5c-.177-4.194-6.017-8.508-6.017-8.508Z" transform="translate(-245.407 -478.59)" fill="#233862"/>
    <path id="Path_436" data-name="Path 436" d="M398.218,939.212l-31.554-30.989C359.427,889.31,346.39,864.7,346.39,864.7l26.646-15.177s29.826,39.5,30.68,65.1C403.906,920.2,401.575,929.261,398.218,939.212Z" transform="translate(-89.292 -290.287)" fill="#e58638"/>
    <path id="Path_437" data-name="Path 437" d="M375.88,589.244s3.485,13.106,15.4,13.931c0,0,4.635-4.219,6.487-8.067.227-.47.45-.932.664-1.365,2.1-4.322,3.4-6.694,3.4-6.694h0c-.367-.412-12.41-13.577-12.636-13.061C383.9,585.867,375.88,589.244,375.88,589.244Z" transform="translate(-106.62 -128.381)" fill="#ffb27d"/>
    <path id="Path_438" data-name="Path 438" d="M408.58,582.414c.181,3.349,2.66,10.9,9.073,16.253,2.1-4.322,3.4-6.694,3.4-6.694h0C420.68,591.66,408.522,581.424,408.58,582.414Z" transform="translate(-125.834 -133.3)" fill="#ed975d"/>
    <path id="Path_439" data-name="Path 439" d="M423.744,560.147s-18.654-3.971-16-15.548,2.029-19.891,14.051-17.849,13.317,7.011,13.371,11.073S428.668,560.9,423.744,560.147Z" transform="translate(-125.19 -100.451)" fill="#ffb27d"/>
    <path id="Path_440" data-name="Path 440" d="M403.532,869.59s50.438,90.608,78.5,125.9c0,0-8.108,6.784-21.033,2.887,0,0-42.025-34.033-53.985-53.35S368.5,892.772,350.92,879.434Z" transform="translate(-91.954 -302.08)" fill="#ee9849"/>
    <path id="Path_441" data-name="Path 441" d="M318.865,674.677s2.681,42.784,11.3,48.051c9.9,6.046,60.378-2.273,57.186-8.071a73.157,73.157,0,0,1-6.566-16.228c-2.52-9.073-4.355-21.57-2.941-37.637a101.047,101.047,0,0,0,.066-16.909c-.858-10.463-3.419-19.705-7.5-24.687-6.207-7.572-23.2-16.414-23.2-16.414S316.86,615.346,318.865,674.677Z" transform="translate(-73.063 -145.306)" fill="#2a4e96"/>
    <path id="Path_442" data-name="Path 442" d="M438.675,744.858c-2.52-9.073-4.355-21.57-2.94-37.637a101.042,101.042,0,0,0,.066-16.909c-3.563-5.411-8.661-8.813-15.866-8.492C419.935,681.833,406.935,719.944,438.675,744.858Z" transform="translate(-130.957 -191.737)" fill="#1e3d70"/>
    <path id="Path_443" data-name="Path 443" d="M414.268,631.165s26.675,29.2,41.308,41.423c0,0,47.267,20.184,48.442,21.99,0,0-.041,4.207-2.421,6.7,0,0-47.506-7.51-55.631-11.255s-39.98-24.444-42.479-28.457S400.546,627.478,414.268,631.165Z" transform="translate(-122.036 -161.801)" fill="#2a4e96"/>
    <path id="Path_444" data-name="Path 444" d="M399.317,535.641c-.3.037-4.438-.557-4.85-17.416a13.127,13.127,0,0,1,5.819-10.533c4.434-2.912,14.826-1.938,22.864.14s7.836,7.065,7.621,12.055c-.243,5.242,3.324,11.329,3.324,11.329-8.038.553-13.3-8.141-16.352-8.558s-5.955,3.328-6.788,4.574-1.65,2.219-4.438-.553-3.737,4.017-3.737,5.4C402.781,532.081,401.808,535.315,399.317,535.641Z" transform="translate(-117.54 -88.362)" fill="#a9453d"/>
    <path id="Path_445" data-name="Path 445" d="M1274.849,714.746c-.825-.235-4.47-.1-12.76-1.435,0,0-.507-.054-3.064-1.753h0c-7.836-5.419-16.047-11.428-25.532-17.058-6.644-3.951-17.829-14.888-28.23-23.561q-2.208-1.856-4.359-3.522l-4.1-3.2a7.011,7.011,0,0,0-8.351-.19,13.021,13.021,0,0,0-5.914,9.485c-.12,1.4.693,3.06,2.182,4.887a49.174,49.174,0,0,0,7.465,7.073c9.391,7.465,22.724,14.785,31.1,19.825,9.683,5.827,23.92,10.31,30.7,12.261h0s3.617.982,3.868,1.163,5.745,2.145,8.046,3.275,10.554,2.091,13.235-1.65S1276.569,715.224,1274.849,714.746Z" transform="translate(-599.132 -180.538)" fill="#ffb27d"/>
    <path id="Path_446" data-name="Path 446" d="M1205.121,670.139a29.309,29.309,0,0,1-13.478,14.979,50.5,50.5,0,0,1-7.683-7.283c-1.538-1.88-2.371-3.588-2.247-5.031.412-5.1,3.881-8.385,6.826-10.282a6.421,6.421,0,0,1,7.423.347l4.664,3.641C1202.1,667.652,1203.6,668.872,1205.121,670.139Z" transform="translate(-597.484 -179.812)" fill="#2b478b"/>
    <path id="Path_447" data-name="Path 447" d="M2211.337,786.08c-.3.087-5.432,1.237-8.97.689s-9.012,3.662-9.334,4.834,1.073,3.856,3,3.856a4.762,4.762,0,0,0,3.98-1.843c.631-.945,3.74-.153,5.46-1.266S2211.337,786.08,2211.337,786.08Z" transform="translate(-1209.351 -253.011)" fill="#ffb27d"/>
    <path id="Path_448" data-name="Path 448" d="M2298.58,697.522c-1.476,1.976-8.033,7.1-15.778,12.533h0c-10.687,7.5-23.64,15.606-28.675,16.909-8.69,2.252-44.1,3.468-44.1.623,0-2.639,32.511-10.277,41.2-12.212,3.972-.878,12.373-8.5,20.315-16.529,9.457-9.547,18.288-19.656,18.288-19.656C2296.036,676.118,2308.268,684.58,2298.58,697.522Z" transform="translate(-1221.985 -189.833)" fill="#ffb27d"/>
    <path id="Path_449" data-name="Path 449" d="M2386.218,697.526c-1.477,1.976-8.034,7.1-15.779,12.533h0c-8.22-2.648-10.578-8.186-11.259-11.205,9.457-9.547,18.287-19.656,18.287-19.656C2383.673,676.121,2395.906,684.584,2386.218,697.526Z" transform="translate(-1310.309 -189.837)" fill="#699dee"/>
    <path id="Path_450" data-name="Path 450" d="M2628.976,782.214s-10.446-2.062-14.7.862-7.37,7.659-4.656,8.661,10.908-1.374,12.331-2.269,5.7-2.177,6.186-2.722S2628.976,782.214,2628.976,782.214Z" transform="translate(-1469.392 -250.324)" fill="#ed975d"/>
    <path id="Path_451" data-name="Path 451" d="M2730.927,645.3s-32.771,26.782-47.506,37.658c0,0-46.479,16.633-47.708,18.295,0,0-.206,4.038,1.934,6.566,0,0,45.98-4.462,53.986-7.589s39.74-21.132,42.375-24.828S2744.293,642.554,2730.927,645.3Z" transform="translate(-1485.317 -170.184)" fill="#1e3d70"/>
    <path id="Path_452" data-name="Path 452" d="M2529.806,1172.721s-7.362,7.836-17.247,9.114c0,0-6.6.054-6.6,6.125h34.973a57.939,57.939,0,0,0,.824-8.17c.169-4.029,5.774-8.17,5.774-8.17Z" transform="translate(-1399.535 -479.548)" fill="#233862"/>
    <path id="Path_453" data-name="Path 453" d="M2691.125,899.575c-16.909,12.814-53.313,45.625-64.8,64.18-2.536,4.1-6.6,8.661-11.358,13.309-16.8,16.336-42.521,33.451-42.521,33.451-12.421,3.753-20.208-2.763-20.208-2.763,18.9-24.18,39.121-48.5,56.377-68.754,24.654-28.935,43.242-49.547,43.242-49.547Z" transform="translate(-1436.273 -313.749)" fill="#2b478b"/>
    <path id="Path_454" data-name="Path 454" d="M2771.448,899.575c-16.908,12.814-53.313,45.625-64.8,64.18-2.537,4.1-6.6,8.661-11.358,13.309L2688.94,939c24.654-28.935,43.242-49.547,43.242-49.547Z" transform="translate(-1516.596 -313.749)" fill="#233862"/>
    <path id="Path_455" data-name="Path 455" d="M2760.69,1171.38s-2.446,7.118-12.241,8.376c0,0-6.549.054-6.549,6.071h34.643a26.185,26.185,0,0,0-1.715-8.921,76.4,76.4,0,0,0-4.269-8.916Z" transform="translate(-1547.715 -477.415)" fill="#233862"/>
    <path id="Path_456" data-name="Path 456" d="M2757.884,890.038s-45.469,38.6-44.079,52.08c1.814,17.66,26.807,68.375,26.807,68.375s4.351,2.54,15.35-3.741c0,0-.886-38.767-12.48-61.78-2.4-4.784,45.634-24.58,51.115-38.111s6.8-21.153,0-21.285S2757.884,890.038,2757.884,890.038Z" transform="translate(-1531.188 -311.471)" fill="#2b478b"/>
    <path id="Path_457" data-name="Path 457" d="M2615.811,790.121s-12.08-4.673-15.853-3.1c-4.755,1.98-7.671,5.423-5.188,6.929a21.5,21.5,0,0,0,12.784,2.029c1.651-.3,6-1.093,6.6-1.538S2615.811,790.121,2615.811,790.121Z" transform="translate(-1460.731 -253.373)" fill="#ffb27d"/>
    <path id="Path_458" data-name="Path 458" d="M2830.3,612.369s-2.2,12.838-13.536,14.653c0,0-4.8-3.638-6.9-7.155q-.386-.656-.754-1.237c-2.384-3.955-3.828-6.112-3.828-6.112h0c.314-.412,10.7-14.059,10.962-13.585C2822.333,609.821,2830.3,612.369,2830.3,612.369Z" transform="translate(-1584.955 -143.039)" fill="#ffb27d"/>
    <path id="Path_459" data-name="Path 459" d="M2816.386,607c.111,3.217-1.608,10.657-7.279,16.332-2.384-3.955-3.827-6.112-3.827-6.112h0C2805.605,616.885,2816.353,606.043,2816.386,607Z" transform="translate(-1584.956 -147.748)" fill="#ed975d"/>
    <path id="Path_460" data-name="Path 460" d="M2780.793,590.953s18.146-2.384,16.5-13.672-.433-19.2-12.1-18.146-13.283,5.683-13.647,9.585S2776.038,591.283,2780.793,590.953Z" transform="translate(-1565.121 -119.606)" fill="#ffb27d"/>
    <path id="Path_461" data-name="Path 461" d="M2846.091,691s1.126,41.163-6.669,46.941c-8.954,6.64-57.957,3.031-55.4-2.792a69.472,69.472,0,0,0,4.557-14.434c.112-.545.219-1.1.326-1.675,1.629-8.9,2.31-21.008-.412-36.259-.177-1-.343-2-.486-3a95.887,95.887,0,0,1-1.031-13.156c-.083-10.083,1.572-19.144,5.048-24.262,5.287-7.774,20.786-17.7,20.786-17.7S2842.9,634.076,2846.091,691Z" transform="translate(-1572.408 -158.163)" fill="#2a4e96"/>
    <path id="Path_462" data-name="Path 462" d="M2817.542,696.9s2.438,45.428-23.148,66.279c.111-.544.218-1.1.325-1.674,1.629-8.9,2.309-21.008-.413-36.26-.177-1-.342-2-.486-3C2800.741,708.732,2809.653,697.354,2817.542,696.9Z" transform="translate(-1578.222 -200.61)" fill="#1e3d70"/>
    <path id="Path_463" data-name="Path 463" d="M2726.848,652.578s-10.062.9-43.213,38.619c0,0-46.479,16.633-47.712,18.295,0,0-.207,4.037,1.934,6.57,0,0,45.981-4.466,53.985-7.589s39.741-21.136,42.38-24.832S2740.219,649.831,2726.848,652.578Z" transform="translate(-1485.441 -174.463)" fill="#2a4e96"/>
    <path id="Path_464" data-name="Path 464" d="M2790.319,563.463s-2.062-.219-1.918-3.064-.078-6.545-2.334-5.712-2.256,2.677-3.267,1.65-1.312-5.543-8.169-5.436-9.486,2.664-12.76,1.464-3.732-6-3.732-6a5.558,5.558,0,0,0,2.409,2.124s-5.774-6.929.078-12.286,12.3-2.474,15.87-2.5c7.865,0,12.954.144,15.833,5.135S2795.037,558.2,2790.319,563.463Z" transform="translate(-1557.177 -104.273)" fill="#2b478b"/>
  </g>
</svg>
